<?xml version="1.0" standalone="no"?>
<!DOCTYPE svg PUBLIC "-//W3C//DTD SVG 20010904//EN"
 "http://www.w3.org/TR/2001/REC-SVG-20010904/DTD/svg10.dtd">
<svg version="1.0" xmlns="http://www.w3.org/2000/svg"
 width="256.000000pt" height="256.000000pt" viewBox="0 0 256.000000 256.000000"
 preserveAspectRatio="xMidYMid meet">
<metadata>
Created by potrace 1.15, written by Peter Selinger 2001-2017
</metadata>
<g transform="translate(0.000000,256.000000) scale(0.100000,-0.100000)"
fill="#000000" stroke="none">
<path d="M212 958 c3 -109 4 -113 26 -116 20 -3 22 1 22 37 0 40 1 41 34 41
48 0 86 33 86 76 0 55 -27 74 -105 74 l-66 0 3 -112z"/>
<path d="M1502 958 c3 -108 4 -113 25 -116 19 -3 22 2 25 35 3 35 6 38 40 44
53 8 78 34 78 80 0 52 -26 69 -108 69 l-63 0 3 -112z"/>
<path d="M545 987 c-40 -34 -41 -90 -1 -123 30 -26 51 -29 91 -14 39 15 26 36
-20 32 -35 -4 -54 7 -55 31 0 4 23 7 50 7 46 0 50 2 50 23 0 33 -20 56 -56 63
-24 4 -37 0 -59 -19z"/>
<path d="M946 989 c-21 -16 -26 -29 -26 -64 0 -35 5 -48 26 -64 30 -24 52 -26
87 -10 25 11 47 47 47 74 0 27 -22 63 -47 74 -35 16 -57 14 -87 -10z"/>
<path d="M1110 942 c0 -57 4 -72 21 -87 17 -16 25 -17 49 -8 18 7 32 7 36 2 3
-5 12 -9 20 -9 11 0 14 18 14 85 0 78 -2 85 -20 85 -17 0 -20 -7 -20 -52 0
-61 -10 -81 -36 -76 -16 3 -20 14 -22 66 -3 54 -6 62 -22 62 -18 0 -20 -7 -20
-68z"/>
<path d="M1814 998 c-24 -11 -44 -48 -44 -79 0 -26 53 -79 79 -79 29 0 72 22
68 34 -2 6 -23 11 -48 11 -33 0 -44 4 -47 18 -3 14 4 17 47 17 46 0 51 2 51
23 0 28 -9 41 -37 56 -26 13 -41 13 -69 -1z"/>
<path d="M2134 998 c-24 -11 -44 -48 -44 -79 0 -26 53 -79 79 -79 29 0 72 22
68 34 -2 6 -23 11 -48 11 -33 0 -44 4 -47 18 -3 14 4 17 47 17 46 0 51 2 51
23 0 28 -9 41 -37 56 -26 13 -41 13 -69 -1z"/>
</g>
</svg>
